<svg width="18" height="18" viewBox="0 0 18 18" fill="none" xmlns="http://www.w3.org/2000/svg">
<path d="M1.49999 17.25C1.37892 17.2521 1.25915 17.2248 1.1509 17.1706C1.04266 17.1163 0.949163 17.0366 0.87841 16.9383C0.807657 16.8401 0.76175 16.7261 0.744611 16.6063C0.727472 16.4864 0.739612 16.3642 0.779993 16.25L2.37999 11C2.03175 10.0973 1.85539 9.1375 1.85999 8.17C1.8584 7.10571 2.06918 6.05181 2.47999 5.07C2.88297 4.13048 3.45975 3.2755 4.17999 2.55C4.90382 1.82307 5.76344 1.24546 6.70999 0.850002C7.68891 0.43441 8.74151 0.220226 9.80499 0.220226C10.8685 0.220226 11.9211 0.43441 12.9 0.850002C14.3341 1.4643 15.5573 2.48453 16.4191 3.78511C17.2808 5.08569 17.7434 6.60986 17.75 8.17C17.7437 10.2771 16.9065 12.2966 15.42 13.79C14.6945 14.5103 13.8395 15.087 12.9 15.49C11.0091 16.2819 8.88647 16.3177 6.96999 15.59L1.71999 17.19C1.64977 17.22 1.57574 17.2402 1.49999 17.25ZM9.79999 1.75C8.53344 1.75548 7.29616 2.13144 6.24068 2.83154C5.18519 3.53165 4.35763 4.52529 3.85999 5.69C3.19883 7.2911 3.19883 9.0889 3.85999 10.69C3.91957 10.8548 3.91957 11.0352 3.85999 11.2L2.62999 15.37L6.77999 14.11C6.94477 14.0504 7.12521 14.0504 7.28999 14.11C8.08242 14.439 8.93199 14.6083 9.78999 14.6083C10.648 14.6083 11.4976 14.439 12.29 14.11C13.0708 13.7813 13.779 13.3018 14.3742 12.6989C14.9693 12.096 15.4397 11.3817 15.7583 10.5967C16.077 9.81176 16.2376 8.97166 16.231 8.12454C16.2244 7.27741 16.0508 6.43991 15.72 5.66C15.2234 4.50095 14.398 3.51286 13.3459 2.81794C12.2937 2.12301 11.0609 1.75173 9.79999 1.75Z" fill="black"/>
</svg>
