<svg width="18" height="18" viewBox="0 0 18 18" fill="none" xmlns="http://www.w3.org/2000/svg">
<path d="M15.3799 0.25H3.80994C2.71994 0.25 1.78994 1.03 1.59994 2.11L0.289944 9.61C0.179944 10.27 0.359944 10.94 0.779944 11.45C1.20994 11.96 1.82994 12.25 2.49994 12.25H6.52994V15C6.52994 16.52 7.75994 17.75 9.35994 17.75C10.0599 17.75 10.6899 17.33 10.9699 16.68L13.5099 10.75H15.3899C16.6999 10.75 17.7599 9.69 17.7599 8.38V2.61C17.7599 1.31 16.6999 0.25 15.3899 0.25H15.3799ZM12.2599 9.85L9.58994 16.1C9.54994 16.19 9.45994 16.26 9.26994 16.26C8.57994 16.26 8.02994 15.7 8.02994 15.01V10.76H2.49994C2.26994 10.76 2.06994 10.67 1.92994 10.5C1.77994 10.33 1.72994 10.11 1.76994 9.88L3.07994 2.38C3.13994 2.02 3.44994 1.76 3.81994 1.76H12.2599V9.85ZM16.2499 8.38C16.2499 8.86 15.8599 9.25 15.3799 9.25H13.7699V1.75H15.3799C15.8599 1.75 16.2499 2.14 16.2499 2.61V8.38Z" fill="black"/>
</svg>
