<svg width="20" height="18" viewBox="0 0 20 18" fill="none" xmlns="http://www.w3.org/2000/svg">
<path d="M18.75 4.3125H10C9.75136 4.3125 9.5129 4.21373 9.33709 4.03791C9.16127 3.8621 9.0625 3.62364 9.0625 3.375C9.0625 3.12636 9.16127 2.8879 9.33709 2.71209C9.5129 2.53627 9.75136 2.4375 10 2.4375H18.75C18.9986 2.4375 19.2371 2.53627 19.4129 2.71209C19.5887 2.8879 19.6875 3.12636 19.6875 3.375C19.6875 3.62364 19.5887 3.8621 19.4129 4.03791C19.2371 4.21373 18.9986 4.3125 18.75 4.3125Z" fill="black"/>
<path d="M7.5 4.3125H1.25C1.00136 4.3125 0.762903 4.21373 0.587087 4.03791C0.411272 3.8621 0.3125 3.62364 0.3125 3.375C0.3125 3.12636 0.411272 2.8879 0.587087 2.71209C0.762903 2.53627 1.00136 2.4375 1.25 2.4375H7.5C7.74864 2.4375 7.9871 2.53627 8.16291 2.71209C8.33873 2.8879 8.4375 3.12636 8.4375 3.375C8.4375 3.62364 8.33873 3.8621 8.16291 4.03791C7.9871 4.21373 7.74864 4.3125 7.5 4.3125Z" fill="black"/>
<path d="M7.5 6.1875C7.25237 6.18426 7.01579 6.08445 6.84067 5.90933C6.66555 5.73421 6.56574 5.49763 6.5625 5.25V1.5C6.5625 1.25136 6.66127 1.0129 6.83709 0.837087C7.0129 0.661272 7.25136 0.5625 7.5 0.5625C7.74864 0.5625 7.9871 0.661272 8.16291 0.837087C8.33873 1.0129 8.4375 1.25136 8.4375 1.5V5.25C8.43426 5.49763 8.33445 5.73421 8.15933 5.90933C7.98421 6.08445 7.74763 6.18426 7.5 6.1875Z" fill="black"/>
<path d="M18.75 15.5625H10C9.75136 15.5625 9.5129 15.4637 9.33709 15.2879C9.16127 15.1121 9.0625 14.8736 9.0625 14.625C9.0625 14.3764 9.16127 14.1379 9.33709 13.9621C9.5129 13.7863 9.75136 13.6875 10 13.6875H18.75C18.9986 13.6875 19.2371 13.7863 19.4129 13.9621C19.5887 14.1379 19.6875 14.3764 19.6875 14.625C19.6875 14.8736 19.5887 15.1121 19.4129 15.2879C19.2371 15.4637 18.9986 15.5625 18.75 15.5625Z" fill="black"/>
<path d="M7.5 15.5625H1.25C1.00136 15.5625 0.762903 15.4637 0.587087 15.2879C0.411272 15.1121 0.3125 14.8736 0.3125 14.625C0.3125 14.3764 0.411272 14.1379 0.587087 13.9621C0.762903 13.7863 1.00136 13.6875 1.25 13.6875H7.5C7.74864 13.6875 7.9871 13.7863 8.16291 13.9621C8.33873 14.1379 8.4375 14.3764 8.4375 14.625C8.4375 14.8736 8.33873 15.1121 8.16291 15.2879C7.9871 15.4637 7.74864 15.5625 7.5 15.5625Z" fill="black"/>
<path d="M7.5 17.4375C7.25237 17.4343 7.01579 17.3345 6.84067 17.1593C6.66555 16.9842 6.56574 16.7476 6.5625 16.5V12.75C6.5625 12.5014 6.66127 12.2629 6.83709 12.0871C7.0129 11.9113 7.25136 11.8125 7.5 11.8125C7.74864 11.8125 7.9871 11.9113 8.16291 12.0871C8.33873 12.2629 8.4375 12.5014 8.4375 12.75V16.5C8.43426 16.7476 8.33445 16.9842 8.15933 17.1593C7.98421 17.3345 7.74763 17.4343 7.5 17.4375Z" fill="black"/>
<path d="M18.75 9.9375H15C14.7514 9.9375 14.5129 9.83873 14.3371 9.66291C14.1613 9.4871 14.0625 9.24864 14.0625 9C14.0625 8.75136 14.1613 8.5129 14.3371 8.33709C14.5129 8.16127 14.7514 8.0625 15 8.0625H18.75C18.9986 8.0625 19.2371 8.16127 19.4129 8.33709C19.5887 8.5129 19.6875 8.75136 19.6875 9C19.6875 9.24864 19.5887 9.4871 19.4129 9.66291C19.2371 9.83873 18.9986 9.9375 18.75 9.9375Z" fill="black"/>
<path d="M12.5 9.9375H1.25C1.00136 9.9375 0.762903 9.83873 0.587087 9.66291C0.411272 9.4871 0.3125 9.24864 0.3125 9C0.3125 8.75136 0.411272 8.5129 0.587087 8.33709C0.762903 8.16127 1.00136 8.0625 1.25 8.0625H12.5C12.7486 8.0625 12.9871 8.16127 13.1629 8.33709C13.3387 8.5129 13.4375 8.75136 13.4375 9C13.4375 9.24864 13.3387 9.4871 13.1629 9.66291C12.9871 9.83873 12.7486 9.9375 12.5 9.9375Z" fill="black"/>
<path d="M12.5 11.8125C12.2524 11.8093 12.0158 11.7095 11.8407 11.5343C11.6655 11.3592 11.5657 11.1226 11.5625 10.875V7.125C11.5625 6.87636 11.6613 6.6379 11.8371 6.46209C12.0129 6.28627 12.2514 6.1875 12.5 6.1875C12.7486 6.1875 12.9871 6.28627 13.1629 6.46209C13.3387 6.6379 13.4375 6.87636 13.4375 7.125V10.875C13.4343 11.1226 13.3345 11.3592 13.1593 11.5343C12.9842 11.7095 12.7476 11.8093 12.5 11.8125Z" fill="black"/>
</svg>
