<svg width="18" height="18" viewBox="0 0 18 18" fill="none" xmlns="http://www.w3.org/2000/svg">
<path d="M17.22 6.55C16.79 6.04 16.17 5.75 15.5 5.75H11.47V3C11.47 1.48 10.24 0.25 8.64 0.25C7.94 0.25 7.31 0.67 7.03 1.32L4.49 7.25H2.62C1.31 7.25 0.25 8.31 0.25 9.62V15.39C0.25 16.69 1.32 17.75 2.62 17.75H14.18C15.27 17.75 16.2 16.97 16.39 15.89L17.71 8.39C17.82 7.73 17.64 7.06 17.21 6.55H17.22ZM2.62 16.25C2.14 16.25 1.75 15.86 1.75 15.39V9.62C1.75 9.14 2.14 8.75 2.62 8.75H4.23V16.25H2.62ZM14.92 15.63C14.86 15.99 14.55 16.25 14.18 16.25H5.74V8.15L8.41 1.9C8.45 1.81 8.54 1.74 8.73 1.74C9.42 1.74 9.97 2.3 9.97 2.99V7.24H15.5C15.73 7.24 15.93 7.33 16.07 7.5C16.21 7.67 16.27 7.89 16.23 8.12L14.91 15.62L14.92 15.63Z" fill="black"/>
</svg>
