<svg width="20" height="20" viewBox="0 0 20 20" fill="none" xmlns="http://www.w3.org/2000/svg">
<path d="M15 0.3125C15.5125 0.3125 15.9375 0.737499 15.9375 1.25L15.9375 16.4875L17.4625 14.9625C17.825 14.6 18.425 14.6 18.7875 14.9625C18.975 15.15 19.0625 15.3875 19.0625 15.625C19.0625 15.8625 18.975 16.1 18.7875 16.2875L15.6625 19.4125C15.575 19.5 15.475 19.5625 15.3625 19.6125C15.1375 19.7125 14.875 19.7125 14.65 19.6125C14.5375 19.5625 14.4375 19.5 14.35 19.4125L11.225 16.2875C10.8625 15.925 10.8625 15.325 11.225 14.9625C11.5875 14.6 12.1875 14.6 12.55 14.9625L14.075 16.4875L14.075 1.25C14.075 0.737499 14.5 0.3125 15.0125 0.3125H15ZM5.9375 18.75L5.9375 3.5125L7.4625 5.0375C7.825 5.4 8.425 5.4 8.7875 5.0375C8.975 4.85 9.0625 4.6125 9.0625 4.375C9.0625 4.1375 8.975 3.9 8.7875 3.7125L5.6625 0.5875C5.575 0.5 5.475 0.4375 5.3625 0.387499C5.1375 0.287498 4.875 0.287498 4.65 0.387499C4.5375 0.4375 4.4375 0.5 4.35 0.5875L1.225 3.7125C0.8625 4.075 0.8625 4.675 1.225 5.0375C1.5875 5.4 2.1875 5.4 2.55 5.0375L4.075 3.5125L4.075 18.75C4.075 19.2625 4.5 19.6875 5.0125 19.6875C5.525 19.6875 5.95 19.2625 5.95 18.75H5.9375Z" fill="black"/>
</svg>
